<!-- <svg xmlns="http://www.w3.org/2000/svg" class="icon icon-tabler icon-tabler-alert-triangle" width="100" height="100" viewBox="0 0 24 24" stroke-width="2" stroke="#212529" fill="none" stroke-linecap="round" stroke-linejoin="round">
  <path stroke="none" d="M0 0h24v24H0z" fill="none"/>
  <path d="M12 9v4" />
  <path d="M10.363 3.591l-8.106 13.534a1.914 1.914 0 0 0 1.636 2.871h16.214a1.914 1.914 0 0 0 1.636 -2.87l-8.106 -13.536a1.914 1.914 0 0 0 -3.274 0z" />
  <path d="M12 16h.01" />
</svg> -->
<svg xmlns="http://www.w3.org/2000/svg" class="icon icon-tabler icon-tabler-plug-connected-x" width="100" height="100" viewBox="0 0 24 24" stroke-width="2" stroke="#212529" fill="none" stroke-linecap="round" stroke-linejoin="round">
  <path stroke="none" d="M0 0h24v24H0z" fill="none"/>
  <path d="M20 16l-4 4" />
  <path d="M7 12l5 5l-1.5 1.5a3.536 3.536 0 1 1 -5 -5l1.5 -1.5z" />
  <path d="M17 12l-5 -5l1.5 -1.5a3.536 3.536 0 1 1 5 5l-1.5 1.5z" />
  <path d="M3 21l2.5 -2.5" />
  <path d="M18.5 5.5l2.5 -2.5" />
  <path d="M10 11l-2 2" />
  <path d="M13 14l-2 2" />
  <path d="M16 16l4 4" />
</svg>